<svg xmlns="http://www.w3.org/2000/svg" viewBox="0 0 220 220">
  <defs>
    <mask id="waveMask">
      <rect width="220" height="220" fill="white"/>
      <path d="M-5,68 C20,60 45,58 55,72 C68,90 80,105 100,100 C120,95 132,80 148,72 C158,66 178,64 225,68 L225,82 C178,78 158,80 148,88 C132,98 120,112 100,114 C80,116 68,100 55,88 C45,76 20,74 -5,82Z" fill="black"/>
      <path d="M-5,120 C20,112 45,110 55,124 C68,142 80,157 100,152 C120,147 132,132 148,124 C158,118 178,116 225,120 L225,134 C178,130 158,132 148,140 C132,150 120,164 100,166 C80,168 68,152 55,140 C45,128 20,126 -5,130Z" fill="black"/>
    </mask>
  </defs>
  <g fill="#40916C" mask="url(#waveMask)">
    <path d="M55,10 C72,10 88,18 94,32 C100,44 100,52 100,55 C100,58 100,66 94,78 C88,92 72,100 55,100 C38,100 22,92 16,78 C10,66 10,58 10,55 C10,52 10,44 16,32 C22,18 38,10 55,10Z"/>
    <path d="M165,10 C182,10 198,18 204,32 C210,44 210,52 210,55 C210,58 210,66 204,78 C198,92 182,100 165,100 C148,100 132,92 126,78 C120,66 120,58 120,55 C120,52 120,44 126,32 C132,18 148,10 165,10Z"/>
    <path d="M55,120 C72,120 88,128 94,142 C100,154 100,162 100,165 C100,168 100,176 94,188 C88,202 72,210 55,210 C38,210 22,202 16,188 C10,176 10,168 10,165 C10,162 10,154 16,142 C22,128 38,120 55,120Z"/>
    <path d="M165,120 C182,120 198,128 204,142 C210,154 210,162 210,165 C210,168 210,176 204,188 C198,202 182,210 165,210 C148,210 132,202 126,188 C120,176 120,168 120,165 C120,162 120,154 126,142 C132,128 148,120 165,120Z"/>
  </g>
</svg>
